<svg width="228" height="51" viewBox="0 0 228 51" xmlns="http://www.w3.org/2000/svg" xmlns:xlink="http://www.w3.org/1999/xlink" fill="none" overflow="hidden"><mask maskUnits="userSpaceOnUse" x="51" y="-0.5" width="177" height="28" id="path-4-outside-1_103_9" fill="#000000"><rect x="51" y="-0.5" width="177" height="28" fill="#FFFFFF"/><path d="M52 7.6791 56.0342 7.6791 62.3899 23.7836 68.8598 7.6791 72.8559 7.6791 65.2443 26.5 59.6116 26.5 52 7.6791Z"/><path d="M94.6475 23.0075 94.6475 11.1716C94.6475 10.6801 94.5714 10.3567 94.4191 10.2015 94.2669 10.0463 93.9497 9.96866 93.4677 9.96866L85.7799 9.96866C85.2978 9.96866 84.9807 10.0463 84.8285 10.2015 84.6762 10.3567 84.6001 10.6801 84.6001 11.1716L84.6001 23.0075C84.6001 23.5249 84.6762 23.8612 84.8285 24.0164 84.9807 24.1458 85.2978 24.2104 85.7799 24.2104L93.4677 24.2104C93.9497 24.2104 94.2669 24.1458 94.4191 24.0164 94.5714 23.8612 94.6475 23.5249 94.6475 23.0075ZM83.5725 7.6791 95.675 7.6791C97.6794 7.6791 98.6816 8.701 98.6816 10.7448L98.6816 23.4343C98.6816 25.4781 97.6794 26.5 95.675 26.5L83.5725 26.5C81.5681 26.5 80.5659 25.4781 80.5659 23.4343L80.5659 10.7448C80.5659 8.701 81.5681 7.6791 83.5725 7.6791Z"/><path d="M113.027 26.5 108.955 26.5 108.955 7.6791 113.027 7.6791 113.027 26.5ZM108.879 4.07015 108.879 0.5 113.141 0.5 113.141 4.07015 108.879 4.07015Z"/><path d="M128.552 24.2104 135.935 24.2104C136.392 24.2104 136.722 24.1199 136.924 23.9388 137.127 23.7318 137.229 23.3826 137.229 22.891L137.229 11.2881C137.229 10.7965 137.127 10.4602 136.924 10.2791 136.722 10.0721 136.392 9.96866 135.935 9.96866L128.552 9.96866C128.044 9.96866 127.714 10.0463 127.562 10.2015 127.435 10.3567 127.372 10.6801 127.372 11.1716L127.372 23.0075C127.372 23.5249 127.435 23.8612 127.562 24.0164 127.714 24.1458 128.044 24.2104 128.552 24.2104ZM137.229 0.538805 141.301 0.538805 141.301 26.5 137.229 26.5 137.229 25.297C136.899 26.099 136.201 26.5 135.136 26.5L126.306 26.5C124.302 26.5 123.3 25.4781 123.3 23.4343L123.3 10.7448C123.3 8.701 124.302 7.6791 126.306 7.6791L135.136 7.6791C136.201 7.6791 136.899 8.0801 137.229 8.88209L137.229 0.538805Z"/><path d="M165.536 23.0075 165.536 11.1716C165.536 10.6801 165.46 10.3567 165.308 10.2015 165.156 10.0463 164.838 9.96866 164.356 9.96866L156.973 9.96866C156.516 9.96866 156.187 10.0721 155.984 10.2791 155.781 10.4602 155.679 10.7965 155.679 11.2881L155.679 12.5687 155.641 12.5687 155.641 21.9597 155.679 21.9597 155.679 22.891C155.679 23.3826 155.781 23.7318 155.984 23.9388 156.187 24.1199 156.516 24.2104 156.973 24.2104L164.356 24.2104C164.838 24.2104 165.156 24.1458 165.308 24.0164 165.46 23.8612 165.536 23.5249 165.536 23.0075ZM157.772 7.6791 166.564 7.6791C168.568 7.6791 169.57 8.701 169.57 10.7448L169.57 23.4343C169.57 25.4781 168.568 26.5 166.564 26.5L157.772 26.5C156.631 26.5 155.92 26.0731 155.641 25.2194L155.641 26.5 151.569 26.5 151.569 0.538805 155.641 0.538805 155.641 8.9597C155.92 8.10597 156.631 7.6791 157.772 7.6791Z"/><path d="M193.235 23.0075 193.235 11.1716C193.235 10.6801 193.158 10.3567 193.006 10.2015 192.854 10.0463 192.537 9.96866 192.055 9.96866L184.367 9.96866C183.885 9.96866 183.568 10.0463 183.416 10.2015 183.263 10.3567 183.187 10.6801 183.187 11.1716L183.187 23.0075C183.187 23.5249 183.263 23.8612 183.416 24.0164 183.568 24.1458 183.885 24.2104 184.367 24.2104L192.055 24.2104C192.537 24.2104 192.854 24.1458 193.006 24.0164 193.158 23.8612 193.235 23.5249 193.235 23.0075ZM182.16 7.6791 194.262 7.6791C196.267 7.6791 197.269 8.701 197.269 10.7448L197.269 23.4343C197.269 25.4781 196.267 26.5 194.262 26.5L182.16 26.5C180.155 26.5 179.153 25.4781 179.153 23.4343L179.153 10.7448C179.153 8.701 180.155 7.6791 182.16 7.6791Z"/><path d="M217.894 16.8373 226 26.5 221.319 26.5 215.344 19.3985 209.064 26.5 205.106 26.5 213.365 17.2254 205.411 7.6791 210.168 7.6791 215.953 14.7418 221.928 7.6791 225.924 7.6791 217.894 16.8373Z"/></mask><defs><linearGradient x1="29.3333" y1="15.1669" x2="7.6294e-06" y2="44.5002" gradientUnits="userSpaceOnUse" id="paint0_linear_103_9"><stop offset="0"/><stop offset="1" stop-color="#FFFFFF"/></linearGradient></defs><path d="M0 15.1671 14.6671 0.5 44.0012 0.5 44.0012 29.8341 29.3341 44.5012 0 44.5012 0 15.1671Z" fill="#F3F3F3"/><path d="M14.6671 0.5 44.0012 0.5 44.0012 29.8341 29.3341 44.5012 0 44.5012 0 15.1671 14.6671 0.5Z" fill="#F3F3F3"/><rect x="0" y="15.1669" width="29.3333" height="29.3333" fill="url(#paint0_linear_103_9)"/><rect x="14.6672" y="15.1669" width="14.6667" height="14.6667" fill="#000000"/><path d="M52 7.6791 56.0342 7.6791 62.3899 23.7836 68.8598 7.6791 72.8559 7.6791 65.2443 26.5 59.6116 26.5 52 7.6791Z" fill="#F3F3F3"/><path d="M94.6475 23.0075 94.6475 11.1716C94.6475 10.6801 94.5714 10.3567 94.4191 10.2015 94.2669 10.0463 93.9497 9.96866 93.4677 9.96866L85.7799 9.96866C85.2978 9.96866 84.9807 10.0463 84.8285 10.2015 84.6762 10.3567 84.6001 10.6801 84.6001 11.1716L84.6001 23.0075C84.6001 23.5249 84.6762 23.8612 84.8285 24.0164 84.9807 24.1458 85.2978 24.2104 85.7799 24.2104L93.4677 24.2104C93.9497 24.2104 94.2669 24.1458 94.4191 24.0164 94.5714 23.8612 94.6475 23.5249 94.6475 23.0075ZM83.5725 7.6791 95.675 7.6791C97.6794 7.6791 98.6816 8.701 98.6816 10.7448L98.6816 23.4343C98.6816 25.4781 97.6794 26.5 95.675 26.5L83.5725 26.5C81.5681 26.5 80.5659 25.4781 80.5659 23.4343L80.5659 10.7448C80.5659 8.701 81.5681 7.6791 83.5725 7.6791Z" fill="#F3F3F3"/><path d="M113.027 26.5 108.955 26.5 108.955 7.6791 113.027 7.6791 113.027 26.5ZM108.879 4.07015 108.879 0.5 113.141 0.5 113.141 4.07015 108.879 4.07015Z" fill="#F3F3F3"/><path d="M128.552 24.2104 135.935 24.2104C136.392 24.2104 136.722 24.1199 136.924 23.9388 137.127 23.7318 137.229 23.3826 137.229 22.891L137.229 11.2881C137.229 10.7965 137.127 10.4602 136.924 10.2791 136.722 10.0721 136.392 9.96866 135.935 9.96866L128.552 9.96866C128.044 9.96866 127.714 10.0463 127.562 10.2015 127.435 10.3567 127.372 10.6801 127.372 11.1716L127.372 23.0075C127.372 23.5249 127.435 23.8612 127.562 24.0164 127.714 24.1458 128.044 24.2104 128.552 24.2104ZM137.229 0.538805 141.301 0.538805 141.301 26.5 137.229 26.5 137.229 25.297C136.899 26.099 136.201 26.5 135.136 26.5L126.306 26.5C124.302 26.5 123.3 25.4781 123.3 23.4343L123.3 10.7448C123.3 8.701 124.302 7.6791 126.306 7.6791L135.136 7.6791C136.201 7.6791 136.899 8.0801 137.229 8.88209L137.229 0.538805Z" fill="#F3F3F3"/><path d="M165.536 23.0075 165.536 11.1716C165.536 10.6801 165.46 10.3567 165.308 10.2015 165.156 10.0463 164.838 9.96866 164.356 9.96866L156.973 9.96866C156.516 9.96866 156.187 10.0721 155.984 10.2791 155.781 10.4602 155.679 10.7965 155.679 11.2881L155.679 12.5687 155.641 12.5687 155.641 21.9597 155.679 21.9597 155.679 22.891C155.679 23.3826 155.781 23.7318 155.984 23.9388 156.187 24.1199 156.516 24.2104 156.973 24.2104L164.356 24.2104C164.838 24.2104 165.156 24.1458 165.308 24.0164 165.46 23.8612 165.536 23.5249 165.536 23.0075ZM157.772 7.6791 166.564 7.6791C168.568 7.6791 169.57 8.701 169.57 10.7448L169.57 23.4343C169.57 25.4781 168.568 26.5 166.564 26.5L157.772 26.5C156.631 26.5 155.92 26.0731 155.641 25.2194L155.641 26.5 151.569 26.5 151.569 0.538805 155.641 0.538805 155.641 8.9597C155.92 8.10597 156.631 7.6791 157.772 7.6791Z" fill="#F3F3F3"/><path d="M193.235 23.0075 193.235 11.1716C193.235 10.6801 193.158 10.3567 193.006 10.2015 192.854 10.0463 192.537 9.96866 192.055 9.96866L184.367 9.96866C183.885 9.96866 183.568 10.0463 183.416 10.2015 183.263 10.3567 183.187 10.6801 183.187 11.1716L183.187 23.0075C183.187 23.5249 183.263 23.8612 183.416 24.0164 183.568 24.1458 183.885 24.2104 184.367 24.2104L192.055 24.2104C192.537 24.2104 192.854 24.1458 193.006 24.0164 193.158 23.8612 193.235 23.5249 193.235 23.0075ZM182.16 7.6791 194.262 7.6791C196.267 7.6791 197.269 8.701 197.269 10.7448L197.269 23.4343C197.269 25.4781 196.267 26.5 194.262 26.5L182.16 26.5C180.155 26.5 179.153 25.4781 179.153 23.4343L179.153 10.7448C179.153 8.701 180.155 7.6791 182.16 7.6791Z" fill="#F3F3F3"/><path d="M217.894 16.8373 226 26.5 221.319 26.5 215.344 19.3985 209.064 26.5 205.106 26.5 213.365 17.2254 205.411 7.6791 210.168 7.6791 215.953 14.7418 221.928 7.6791 225.924 7.6791 217.894 16.8373Z" fill="#F3F3F3"/><path d="M52 7.6791 56.0342 7.6791 62.3899 23.7836 68.8598 7.6791 72.8559 7.6791 65.2443 26.5 59.6116 26.5 52 7.6791Z" stroke="#FFFFFF" mask="url(#path-4-outside-1_103_9)"/><path d="M94.6475 23.0075 94.6475 11.1716C94.6475 10.6801 94.5714 10.3567 94.4191 10.2015 94.2669 10.0463 93.9497 9.96866 93.4677 9.96866L85.7799 9.96866C85.2978 9.96866 84.9807 10.0463 84.8285 10.2015 84.6762 10.3567 84.6001 10.6801 84.6001 11.1716L84.6001 23.0075C84.6001 23.5249 84.6762 23.8612 84.8285 24.0164 84.9807 24.1458 85.2978 24.2104 85.7799 24.2104L93.4677 24.2104C93.9497 24.2104 94.2669 24.1458 94.4191 24.0164 94.5714 23.8612 94.6475 23.5249 94.6475 23.0075ZM83.5725 7.6791 95.675 7.6791C97.6794 7.6791 98.6816 8.701 98.6816 10.7448L98.6816 23.4343C98.6816 25.4781 97.6794 26.5 95.675 26.5L83.5725 26.5C81.5681 26.5 80.5659 25.4781 80.5659 23.4343L80.5659 10.7448C80.5659 8.701 81.5681 7.6791 83.5725 7.6791Z" stroke="#FFFFFF" mask="url(#path-4-outside-1_103_9)"/><path d="M113.027 26.5 108.955 26.5 108.955 7.6791 113.027 7.6791 113.027 26.5ZM108.879 4.07015 108.879 0.5 113.141 0.5 113.141 4.07015 108.879 4.07015Z" stroke="#FFFFFF" mask="url(#path-4-outside-1_103_9)"/><path d="M128.552 24.2104 135.935 24.2104C136.392 24.2104 136.722 24.1199 136.924 23.9388 137.127 23.7318 137.229 23.3826 137.229 22.891L137.229 11.2881C137.229 10.7965 137.127 10.4602 136.924 10.2791 136.722 10.0721 136.392 9.96866 135.935 9.96866L128.552 9.96866C128.044 9.96866 127.714 10.0463 127.562 10.2015 127.435 10.3567 127.372 10.6801 127.372 11.1716L127.372 23.0075C127.372 23.5249 127.435 23.8612 127.562 24.0164 127.714 24.1458 128.044 24.2104 128.552 24.2104ZM137.229 0.538805 141.301 0.538805 141.301 26.5 137.229 26.5 137.229 25.297C136.899 26.099 136.201 26.5 135.136 26.5L126.306 26.5C124.302 26.5 123.3 25.4781 123.3 23.4343L123.3 10.7448C123.3 8.701 124.302 7.6791 126.306 7.6791L135.136 7.6791C136.201 7.6791 136.899 8.0801 137.229 8.88209L137.229 0.538805Z" stroke="#FFFFFF" mask="url(#path-4-outside-1_103_9)"/><path d="M165.536 23.0075 165.536 11.1716C165.536 10.6801 165.46 10.3567 165.308 10.2015 165.156 10.0463 164.838 9.96866 164.356 9.96866L156.973 9.96866C156.516 9.96866 156.187 10.0721 155.984 10.2791 155.781 10.4602 155.679 10.7965 155.679 11.2881L155.679 12.5687 155.641 12.5687 155.641 21.9597 155.679 21.9597 155.679 22.891C155.679 23.3826 155.781 23.7318 155.984 23.9388 156.187 24.1199 156.516 24.2104 156.973 24.2104L164.356 24.2104C164.838 24.2104 165.156 24.1458 165.308 24.0164 165.46 23.8612 165.536 23.5249 165.536 23.0075ZM157.772 7.6791 166.564 7.6791C168.568 7.6791 169.57 8.701 169.57 10.7448L169.57 23.4343C169.57 25.4781 168.568 26.5 166.564 26.5L157.772 26.5C156.631 26.5 155.92 26.0731 155.641 25.2194L155.641 26.5 151.569 26.5 151.569 0.538805 155.641 0.538805 155.641 8.9597C155.92 8.10597 156.631 7.6791 157.772 7.6791Z" stroke="#FFFFFF" mask="url(#path-4-outside-1_103_9)"/><path d="M193.235 23.0075 193.235 11.1716C193.235 10.6801 193.158 10.3567 193.006 10.2015 192.854 10.0463 192.537 9.96866 192.055 9.96866L184.367 9.96866C183.885 9.96866 183.568 10.0463 183.416 10.2015 183.263 10.3567 183.187 10.6801 183.187 11.1716L183.187 23.0075C183.187 23.5249 183.263 23.8612 183.416 24.0164 183.568 24.1458 183.885 24.2104 184.367 24.2104L192.055 24.2104C192.537 24.2104 192.854 24.1458 193.006 24.0164 193.158 23.8612 193.235 23.5249 193.235 23.0075ZM182.16 7.6791 194.262 7.6791C196.267 7.6791 197.269 8.701 197.269 10.7448L197.269 23.4343C197.269 25.4781 196.267 26.5 194.262 26.5L182.16 26.5C180.155 26.5 179.153 25.4781 179.153 23.4343L179.153 10.7448C179.153 8.701 180.155 7.6791 182.16 7.6791Z" stroke="#FFFFFF" mask="url(#path-4-outside-1_103_9)"/><path d="M217.894 16.8373 226 26.5 221.319 26.5 215.344 19.3985 209.064 26.5 205.106 26.5 213.365 17.2254 205.411 7.6791 210.168 7.6791 215.953 14.7418 221.928 7.6791 225.924 7.6791 217.894 16.8373Z" stroke="#FFFFFF" mask="url(#path-4-outside-1_103_9)"/><path d="M55.4697 39.752 55.5342 39.752 57.3926 36.7227 58.7568 36.7227 56.3291 40.6113 58.7783 44.5 57.3926 44.5 55.5342 41.5029 55.4697 41.5029 53.6006 44.5 52.2256 44.5 54.707 40.6113 52.2363 36.7227 53.6221 36.7227 55.4697 39.752ZM59.7438 36.7227 62.5153 36.7227C63.1026 36.7227 63.5967 36.8247 63.9977 37.0288 64.4024 37.2329 64.7049 37.5194 64.9054 37.8882 65.1096 38.2534 65.2116 38.6777 65.2116 39.1611 65.2116 39.6911 65.0916 40.1458 64.8517 40.5254 64.6118 40.9049 64.2591 41.1825 63.7936 41.3579L65.5124 44.5 64.1696 44.5 62.5905 41.5674 62.5153 41.5674 60.9255 41.5674 60.9255 44.5 59.7438 44.5 59.7438 36.7227ZM62.3971 40.5469C62.9557 40.5469 63.3657 40.4305 63.6271 40.1978 63.8885 39.9614 64.0192 39.6159 64.0192 39.1611 64.0192 38.7028 63.8867 38.3501 63.6218 38.103 63.3604 37.856 62.9522 37.7324 62.3971 37.7324L60.9255 37.7324 60.9255 40.5469 62.3971 40.5469ZM66.8968 46.7236 65.9838 46.7236 66.5531 43.7588 67.7562 43.7588 66.8968 46.7236ZM71.8571 44.5 71.8571 36.7227 74.4568 36.7227C75.2159 36.7227 75.8694 36.8784 76.4172 37.1899 76.9686 37.4979 77.3894 37.9437 77.6794 38.5273 77.973 39.1074 78.1198 39.7985 78.1198 40.6006 78.1198 41.4062 77.9712 42.1027 77.674 42.6899 77.3804 43.2736 76.9525 43.7212 76.3904 44.0327 75.8318 44.3442 75.1622 44.5 74.3816 44.5L71.8571 44.5ZM74.3171 43.4688C75.1872 43.4688 75.8425 43.2235 76.2829 42.7329 76.7269 42.2388 76.9489 41.528 76.9489 40.6006 76.9489 39.6803 76.7305 38.9767 76.2937 38.4897 75.8604 37.9992 75.223 37.7539 74.3816 37.7539L73.0388 37.7539 73.0388 43.4688 74.3171 43.4688ZM79.3002 38.667 80.4496 38.667 80.4496 44.5 79.3002 44.5 79.3002 38.667ZM79.8803 37.7646C79.7514 37.7646 79.6296 37.7342 79.515 37.6733 79.404 37.6125 79.3145 37.5301 79.2465 37.4263 79.182 37.3224 79.1498 37.2096 79.1498 37.0879 79.1498 36.9661 79.182 36.8534 79.2465 36.7495 79.3145 36.6457 79.404 36.5633 79.515 36.5024 79.6296 36.4416 79.7514 36.4111 79.8803 36.4111 80.0092 36.4111 80.1273 36.4416 80.2348 36.5024 80.3458 36.5633 80.4335 36.6457 80.4979 36.7495 80.566 36.8534 80.6 36.9661 80.6 37.0879 80.6 37.2096 80.566 37.3224 80.4979 37.4263 80.4335 37.5301 80.3458 37.6125 80.2348 37.6733 80.1273 37.7342 80.0092 37.7646 79.8803 37.7646ZM84.2403 46.8096C83.7533 46.8096 83.3236 46.7397 82.9513 46.6001 82.5824 46.4604 82.2888 46.2599 82.0704 45.9985 81.8555 45.7371 81.7302 45.4274 81.6944 45.0693L82.8653 45.0693C82.919 45.3379 83.0658 45.5402 83.3057 45.6763 83.5457 45.8159 83.8608 45.8857 84.2511 45.8857 84.7237 45.8857 85.0907 45.7801 85.3521 45.5688 85.6135 45.3576 85.7442 45.0299 85.7442 44.5859L85.7442 43.4365 85.669 43.4365C85.5222 43.7051 85.3199 43.936 85.0621 44.1294 84.8079 44.3192 84.4444 44.4141 83.9718 44.4141 83.5098 44.4141 83.0927 44.3013 82.7203 44.0757 82.3515 43.8501 82.0614 43.5189 81.8502 43.082 81.6389 42.6452 81.5333 42.126 81.5333 41.5244 81.5333 40.9193 81.6371 40.3965 81.8448 39.9561 82.0561 39.512 82.3461 39.1737 82.7149 38.9409 83.0873 38.7082 83.5098 38.5918 83.9825 38.5918 84.3155 38.5918 84.593 38.6473 84.815 38.7583 85.0406 38.8657 85.2143 38.991 85.336 39.1343 85.4578 39.2739 85.5723 39.4333 85.6798 39.6123L85.755 39.6123 85.755 38.667 86.8721 38.667 86.8721 44.6289C86.8721 45.1123 86.7594 45.5169 86.5338 45.8428 86.3082 46.1686 85.9985 46.4103 85.6046 46.5679 85.2107 46.729 84.7559 46.8096 84.2403 46.8096ZM84.2296 43.4688C84.7165 43.4688 85.0925 43.3005 85.3575 42.9639 85.6225 42.6237 85.755 42.151 85.755 41.5459 85.755 41.1484 85.6959 40.8011 85.5777 40.5039 85.4596 40.2067 85.2859 39.9775 85.0567 39.8164 84.8276 39.6517 84.5518 39.5693 84.2296 39.5693 83.9001 39.5693 83.6208 39.6553 83.3917 39.8271 83.1625 39.9954 82.9906 40.23 82.8761 40.5308 82.7615 40.828 82.7042 41.1663 82.7042 41.5459 82.7042 41.929 82.7615 42.2656 82.8761 42.5557 82.9942 42.8421 83.1679 43.0659 83.3971 43.2271 83.6262 43.3882 83.9037 43.4688 84.2296 43.4688ZM88.2136 38.667 89.363 38.667 89.363 44.5 88.2136 44.5 88.2136 38.667ZM88.7937 37.7646C88.6648 37.7646 88.5431 37.7342 88.4285 37.6733 88.3175 37.6125 88.228 37.5301 88.1599 37.4263 88.0955 37.3224 88.0632 37.2096 88.0632 37.0879 88.0632 36.9661 88.0955 36.8534 88.1599 36.7495 88.228 36.6457 88.3175 36.5633 88.4285 36.5024 88.5431 36.4416 88.6648 36.4111 88.7937 36.4111 88.9226 36.4111 89.0408 36.4416 89.1482 36.5024 89.2592 36.5633 89.3469 36.6457 89.4114 36.7495 89.4794 36.8534 89.5134 36.9661 89.5134 37.0879 89.5134 37.2096 89.4794 37.3224 89.4114 37.4263 89.3469 37.5301 89.2592 37.6125 89.1482 37.6733 89.0408 37.7342 88.9226 37.7646 88.7937 37.7646ZM93.433 39.5801 92.2407 39.5801 92.2407 42.7812C92.2407 43.0785 92.3015 43.2826 92.4233 43.3936 92.5486 43.501 92.7205 43.5583 92.9389 43.5654 93.0392 43.5654 93.1967 43.5583 93.4116 43.5439 93.433 43.5368 93.4689 43.5332 93.519 43.5332L93.519 44.5322C93.3041 44.5609 93.0642 44.5752 92.7993 44.5752 92.4877 44.5752 92.2031 44.5179 91.9453 44.4033 91.6874 44.2887 91.4816 44.1151 91.3276 43.8823 91.1736 43.646 91.0984 43.3577 91.102 43.0176L91.102 39.5801 90.2426 39.5801 90.2426 38.667 91.102 38.667 91.102 37.2705 92.2407 37.2705 92.2407 38.667 93.433 38.667 93.433 39.5801ZM94.2267 42.8564C94.2267 42.2513 94.4308 41.8198 94.839 41.562 95.2472 41.3042 95.77 41.152 96.4073 41.1055 96.6508 41.0876 96.9158 41.0715 97.2023 41.0571 97.4923 41.0392 97.7376 41.0267 97.9381 41.0195L97.9327 40.5576C97.9327 40.2246 97.8325 39.9686 97.632 39.7896 97.4314 39.6069 97.1378 39.5156 96.7511 39.5156 96.4252 39.5156 96.1585 39.5837 95.9508 39.7197 95.7431 39.8522 95.6088 40.0312 95.548 40.2568L94.4093 40.2568C94.4451 39.9346 94.5651 39.6481 94.7692 39.3975 94.9733 39.1432 95.249 38.9463 95.5963 38.8066 95.9472 38.6634 96.3465 38.5918 96.7941 38.5918 97.1629 38.5918 97.5174 38.6491 97.8575 38.7637 98.2013 38.8783 98.4913 39.0859 98.7277 39.3867 98.964 39.6875 99.0821 40.0993 99.0821 40.6221L99.0821 44.5 97.965 44.5 97.965 43.7051 97.922 43.7051C97.7895 43.9629 97.5782 44.1813 97.2882 44.3604 97.0017 44.5394 96.6365 44.6289 96.1925 44.6289 95.8201 44.6289 95.4853 44.5591 95.1881 44.4194 94.8909 44.2798 94.6564 44.0775 94.4845 43.8125 94.3126 43.5439 94.2267 43.2253 94.2267 42.8564ZM95.3439 42.8672C95.3439 43.1393 95.4441 43.3488 95.6446 43.4956 95.8488 43.6424 96.1173 43.7158 96.4503 43.7158 96.7511 43.7158 97.0143 43.6567 97.2399 43.5386 97.4655 43.4168 97.6391 43.2557 97.7609 43.0552 97.8826 42.8511 97.9435 42.6309 97.9435 42.3945L97.9381 41.8628 96.5685 41.9541C96.1782 41.9827 95.8756 42.0723 95.6608 42.2227 95.4495 42.3695 95.3439 42.5843 95.3439 42.8672ZM101.562 44.5 100.413 44.5 100.413 36.7227 101.562 36.7227 101.562 44.5ZM105.244 36.7227 111.271 36.7227 111.271 37.7432 108.854 37.7432 108.854 44.5 107.672 44.5 107.672 37.7432 105.244 37.7432 105.244 36.7227ZM111.205 38.667 112.387 38.667 113.525 42.9424 113.59 42.9424 114.728 38.667 115.91 38.667 117.038 42.9209 117.102 42.9209 118.23 38.667 119.412 38.667 117.704 44.5 116.533 44.5 115.351 40.2998 115.265 40.2998 114.095 44.5 112.913 44.5 111.205 38.667ZM120.302 38.667 121.452 38.667 121.452 44.5 120.302 44.5 120.302 38.667ZM120.882 37.7646C120.753 37.7646 120.632 37.7342 120.517 37.6733 120.406 37.6125 120.317 37.5301 120.249 37.4263 120.184 37.3224 120.152 37.2096 120.152 37.0879 120.152 36.9661 120.184 36.8534 120.249 36.7495 120.317 36.6457 120.406 36.5633 120.517 36.5024 120.632 36.4416 120.753 36.4111 120.882 36.4111 121.011 36.4111 121.129 36.4416 121.237 36.5024 121.348 36.5633 121.436 36.6457 121.5 36.7495 121.568 36.8534 121.602 36.9661 121.602 37.0879 121.602 37.2096 121.568 37.3224 121.5 37.4263 121.436 37.5301 121.348 37.6125 121.237 37.6733 121.129 37.7342 121.011 37.7646 120.882 37.7646ZM123.943 44.5 122.793 44.5 122.793 38.667 123.9 38.667 123.9 39.623 123.964 39.623C124.107 39.3008 124.324 39.0483 124.614 38.8657 124.904 38.6831 125.26 38.5918 125.683 38.5918 126.087 38.5918 126.438 38.6759 126.736 38.8442 127.033 39.009 127.262 39.256 127.423 39.5854 127.588 39.9149 127.67 40.3177 127.67 40.7939L127.67 44.5 126.531 44.5 126.531 40.9336C126.531 40.5111 126.422 40.1799 126.204 39.9399 125.985 39.7 125.683 39.5801 125.296 39.5801 125.035 39.5801 124.8 39.6374 124.592 39.752 124.388 39.8665 124.229 40.0348 124.114 40.2568 124 40.4753 123.943 40.7367 123.943 41.041L123.943 44.5ZM129.538 46.7236 128.625 46.7236 129.194 43.7588 130.397 43.7588 129.538 46.7236ZM133.907 44.5 136.7 36.7227 138.065 36.7227 140.868 44.5 139.612 44.5 138.903 42.4482 135.873 42.4482 135.164 44.5 133.907 44.5ZM138.559 41.46 137.409 38.1406 137.356 38.1406 136.212 41.46 138.559 41.46ZM142.983 44.5 141.802 44.5 141.802 36.7227 142.983 36.7227 142.983 44.5ZM151.37 38.7744C151.335 38.4199 151.172 38.1424 150.882 37.9419 150.592 37.7378 150.221 37.6357 149.77 37.6357 149.458 37.6357 149.184 37.6859 148.948 37.7861 148.712 37.8828 148.529 38.0189 148.4 38.1943 148.275 38.3662 148.212 38.5632 148.212 38.7852 148.212 39.1146 148.346 39.367 148.615 39.5425 148.884 39.7179 149.222 39.8558 149.63 39.9561L150.382 40.1602C151.009 40.307 151.539 40.5505 151.972 40.8906 152.405 41.2308 152.624 41.7178 152.627 42.3516 152.624 42.792 152.507 43.1841 152.278 43.5278 152.049 43.8716 151.718 44.1419 151.284 44.3389 150.851 44.5322 150.336 44.6289 149.738 44.6289 149.161 44.6289 148.658 44.5376 148.228 44.355 147.802 44.1688 147.467 43.9038 147.224 43.5601 146.984 43.2163 146.852 42.8099 146.826 42.3408L148.008 42.3408C148.044 42.749 148.221 43.0605 148.54 43.2754 148.859 43.4902 149.258 43.5977 149.738 43.5977 150.063 43.5977 150.355 43.5457 150.613 43.4419 150.874 43.3345 151.079 43.1859 151.225 42.9961 151.376 42.8027 151.453 42.5807 151.456 42.3301 151.453 42.0186 151.326 41.7769 151.075 41.605 150.824 41.4295 150.461 41.2809 149.985 41.1592L149.061 40.9121C147.707 40.5397 147.031 39.8522 147.031 38.8496 147.031 38.4128 147.151 38.0243 147.39 37.6841 147.634 37.3439 147.967 37.0807 148.389 36.8945 148.812 36.7083 149.283 36.6152 149.802 36.6152 150.321 36.6152 150.785 36.7083 151.193 36.8945 151.601 37.0771 151.922 37.3332 152.155 37.6626 152.387 37.9884 152.509 38.359 152.52 38.7744L151.37 38.7744ZM156.214 44.6182C155.67 44.6182 155.192 44.4928 154.78 44.2422 154.368 43.9915 154.049 43.6406 153.824 43.1895 153.598 42.7347 153.485 42.2083 153.485 41.6104 153.485 41.0088 153.598 40.4806 153.824 40.0259 154.049 39.5711 154.368 39.2184 154.78 38.9678 155.192 38.7171 155.67 38.5918 156.214 38.5918 156.755 38.5918 157.231 38.7171 157.643 38.9678 158.054 39.2184 158.371 39.5729 158.593 40.0312 158.819 40.486 158.932 41.0124 158.932 41.6104 158.932 42.2083 158.819 42.7347 158.593 43.1895 158.371 43.6406 158.054 43.9915 157.643 44.2422 157.231 44.4928 156.755 44.6182 156.214 44.6182ZM156.214 43.6621C156.554 43.6621 156.84 43.5708 157.073 43.3882 157.306 43.2056 157.48 42.9603 157.594 42.6523 157.712 42.3408 157.771 41.9935 157.771 41.6104 157.771 41.2272 157.712 40.8799 157.594 40.5684 157.48 40.2533 157.304 40.0026 157.068 39.8164 156.835 39.6302 156.55 39.5371 156.214 39.5371 155.87 39.5371 155.578 39.6302 155.338 39.8164 155.102 40.0026 154.925 40.2533 154.807 40.5684 154.692 40.8799 154.635 41.2272 154.635 41.6104 154.635 41.9935 154.692 42.3408 154.807 42.6523 154.925 42.9603 155.102 43.2056 155.338 43.3882 155.578 43.5708 155.87 43.6621 156.214 43.6621ZM161.154 44.5 160.005 44.5 160.005 36.7227 161.154 36.7227 161.154 44.5ZM166.201 38.667 167.34 38.667 167.34 44.5 166.223 44.5 166.223 43.4902 166.159 43.4902C166.019 43.8161 165.799 44.0793 165.498 44.2798 165.197 44.4767 164.837 44.5752 164.418 44.5752 164.039 44.5752 163.704 44.491 163.414 44.3228 163.124 44.1545 162.898 43.9056 162.737 43.5762 162.576 43.2467 162.495 42.8457 162.495 42.373L162.495 38.667 163.645 38.667 163.645 42.2334C163.645 42.4948 163.695 42.724 163.795 42.9209 163.895 43.1178 164.033 43.27 164.209 43.3774 164.388 43.4813 164.594 43.5332 164.826 43.5332 165.048 43.5332 165.265 43.4795 165.476 43.3721 165.688 43.2611 165.861 43.0964 165.997 42.8779 166.133 42.6559 166.201 42.3874 166.201 42.0723L166.201 38.667ZM171.41 39.5801 170.218 39.5801 170.218 42.7812C170.218 43.0785 170.279 43.2826 170.4 43.3936 170.526 43.501 170.698 43.5583 170.916 43.5654 171.016 43.5654 171.174 43.5583 171.389 43.5439 171.41 43.5368 171.446 43.5332 171.496 43.5332L171.496 44.5322C171.281 44.5609 171.041 44.5752 170.776 44.5752 170.465 44.5752 170.18 44.5179 169.922 44.4033 169.665 44.2887 169.459 44.1151 169.305 43.8823 169.151 43.646 169.076 43.3577 169.079 43.0176L169.079 39.5801 168.22 39.5801 168.22 38.667 169.079 38.667 169.079 37.2705 170.218 37.2705 170.218 38.667 171.41 38.667 171.41 39.5801ZM172.472 38.667 173.622 38.667 173.622 44.5 172.472 44.5 172.472 38.667ZM173.052 37.7646C172.924 37.7646 172.802 37.7342 172.687 37.6733 172.576 37.6125 172.487 37.5301 172.419 37.4263 172.354 37.3224 172.322 37.2096 172.322 37.0879 172.322 36.9661 172.354 36.8534 172.419 36.7495 172.487 36.6457 172.576 36.5633 172.687 36.5024 172.802 36.4416 172.924 36.4111 173.052 36.4111 173.181 36.4111 173.299 36.4416 173.407 36.5024 173.518 36.5633 173.606 36.6457 173.67 36.7495 173.738 36.8534 173.772 36.9661 173.772 37.0879 173.772 37.2096 173.738 37.3224 173.67 37.4263 173.606 37.5301 173.518 37.6125 173.407 37.6733 173.299 37.7342 173.181 37.7646 173.052 37.7646ZM177.434 44.6182C176.89 44.6182 176.412 44.4928 176 44.2422 175.588 43.9915 175.269 43.6406 175.044 43.1895 174.818 42.7347 174.705 42.2083 174.705 41.6104 174.705 41.0088 174.818 40.4806 175.044 40.0259 175.269 39.5711 175.588 39.2184 176 38.9678 176.412 38.7171 176.89 38.5918 177.434 38.5918 177.975 38.5918 178.451 38.7171 178.863 38.9678 179.274 39.2184 179.591 39.5729 179.813 40.0312 180.039 40.486 180.152 41.0124 180.152 41.6104 180.152 42.2083 180.039 42.7347 179.813 43.1895 179.591 43.6406 179.274 43.9915 178.863 44.2422 178.451 44.4928 177.975 44.6182 177.434 44.6182ZM177.434 43.6621C177.774 43.6621 178.061 43.5708 178.293 43.3882 178.526 43.2056 178.7 42.9603 178.814 42.6523 178.932 42.3408 178.992 41.9935 178.992 41.6104 178.992 41.2272 178.932 40.8799 178.814 40.5684 178.7 40.2533 178.524 40.0026 178.288 39.8164 178.055 39.6302 177.771 39.5371 177.434 39.5371 177.09 39.5371 176.798 39.6302 176.558 39.8164 176.322 40.0026 176.145 40.2533 176.027 40.5684 175.912 40.8799 175.855 41.2272 175.855 41.6104 175.855 41.9935 175.912 42.3408 176.027 42.6523 176.145 42.9603 176.322 43.2056 176.558 43.3882 176.798 43.5708 177.09 43.6621 177.434 43.6621ZM182.374 44.5 181.225 44.5 181.225 38.667 182.331 38.667 182.331 39.623 182.396 39.623C182.539 39.3008 182.755 39.0483 183.045 38.8657 183.335 38.6831 183.692 38.5918 184.114 38.5918 184.519 38.5918 184.87 38.6759 185.167 38.8442 185.464 39.009 185.693 39.256 185.855 39.5854 186.019 39.9149 186.102 40.3177 186.102 40.7939L186.102 44.5 184.963 44.5 184.963 40.9336C184.963 40.5111 184.854 40.1799 184.635 39.9399 184.417 39.7 184.114 39.5801 183.728 39.5801 183.466 39.5801 183.232 39.6374 183.024 39.752 182.82 39.8665 182.661 40.0348 182.546 40.2568 182.431 40.4753 182.374 40.7367 182.374 41.041L182.374 44.5ZM190.719 40.2568C190.666 40.0169 190.544 39.8307 190.354 39.6982 190.168 39.5622 189.921 39.4941 189.613 39.4941 189.398 39.4941 189.205 39.5299 189.033 39.6016 188.861 39.6696 188.727 39.7627 188.63 39.8809 188.537 39.999 188.492 40.1315 188.496 40.2783 188.489 40.4538 188.558 40.6024 188.705 40.7241 188.856 40.8459 189.09 40.9443 189.409 41.0195L190.333 41.2344C190.87 41.3525 191.269 41.5423 191.53 41.8037 191.792 42.0615 191.926 42.3981 191.933 42.8135 191.93 43.1644 191.831 43.4777 191.638 43.7534 191.448 44.0256 191.174 44.2386 190.816 44.3926 190.458 44.543 190.036 44.6182 189.549 44.6182 188.854 44.6182 188.302 44.4696 187.894 44.1724 187.486 43.8752 187.246 43.4544 187.175 42.9102L188.345 42.9102C188.442 43.4329 188.84 43.6943 189.538 43.6943 189.91 43.6943 190.206 43.6245 190.424 43.4849 190.646 43.3416 190.759 43.1465 190.762 42.8994 190.755 42.7096 190.678 42.5521 190.531 42.4268 190.388 42.3014 190.164 42.2048 189.86 42.1367L188.947 41.9434C188.421 41.8252 188.021 41.63 187.749 41.3579 187.481 41.0858 187.346 40.7474 187.346 40.3428 187.346 39.999 187.44 39.6947 187.626 39.4297 187.815 39.1647 188.08 38.9588 188.421 38.812 188.761 38.6652 189.155 38.5918 189.602 38.5918 190.028 38.5918 190.401 38.6616 190.719 38.8013 191.042 38.9373 191.296 39.1307 191.482 39.3813 191.672 39.632 191.787 39.9238 191.826 40.2568L190.719 40.2568ZM195.626 38.667 196.775 38.667 196.775 44.5 195.626 44.5 195.626 38.667ZM196.206 37.7646C196.077 37.7646 195.955 37.7342 195.841 37.6733 195.73 37.6125 195.64 37.5301 195.572 37.4263 195.508 37.3224 195.476 37.2096 195.476 37.0879 195.476 36.9661 195.508 36.8534 195.572 36.7495 195.64 36.6457 195.73 36.5633 195.841 36.5024 195.955 36.4416 196.077 36.4111 196.206 36.4111 196.335 36.4111 196.453 36.4416 196.561 36.5024 196.672 36.5633 196.759 36.6457 196.824 36.7495 196.892 36.8534 196.926 36.9661 196.926 37.0879 196.926 37.2096 196.892 37.3224 196.824 37.4263 196.759 37.5301 196.672 37.6125 196.561 37.6733 196.453 37.7342 196.335 37.7646 196.206 37.7646ZM199.266 44.5 198.117 44.5 198.117 38.667 199.223 38.667 199.223 39.623 199.288 39.623C199.431 39.3008 199.648 39.0483 199.938 38.8657 200.228 38.6831 200.584 38.5918 201.007 38.5918 201.411 38.5918 201.762 38.6759 202.059 38.8442 202.357 39.009 202.586 39.256 202.747 39.5854 202.912 39.9149 202.994 40.3177 202.994 40.7939L202.994 44.5 201.855 44.5 201.855 40.9336C201.855 40.5111 201.746 40.1799 201.528 39.9399 201.309 39.7 201.007 39.5801 200.62 39.5801 200.358 39.5801 200.124 39.6374 199.916 39.752 199.712 39.8665 199.553 40.0348 199.438 40.2568 199.324 40.4753 199.266 40.7367 199.266 41.041L199.266 44.5ZM206.472 44.5 209.265 36.7227 210.629 36.7227 213.433 44.5 212.176 44.5 211.467 42.4482 208.438 42.4482 207.729 44.5 206.472 44.5ZM211.123 41.46 209.974 38.1406 209.92 38.1406 208.776 41.46 211.123 41.46ZM214.366 36.7227 219.243 36.7227 219.243 37.7432 215.548 37.7432 215.548 40.0957 218.985 40.0957 218.985 41.1055 215.548 41.1055 215.548 43.4795 219.286 43.4795 219.286 44.5 214.366 44.5 214.366 36.7227ZM225.902 39.2578C225.837 38.932 225.71 38.6527 225.52 38.4199 225.331 38.1836 225.094 38.0046 224.812 37.8828 224.532 37.7611 224.226 37.7002 223.893 37.7002 223.442 37.7002 223.039 37.8148 222.685 38.0439 222.33 38.2695 222.053 38.6007 221.852 39.0376 221.652 39.4744 221.551 39.999 221.551 40.6113 221.551 41.2236 221.652 41.75 221.852 42.1904 222.056 42.6273 222.334 42.9585 222.685 43.1841 223.039 43.4097 223.442 43.5225 223.893 43.5225 224.222 43.5225 224.527 43.4634 224.806 43.3452 225.085 43.2235 225.32 43.048 225.51 42.8188 225.703 42.5861 225.834 42.3086 225.902 41.9863L227.094 41.9971C227.012 42.5055 226.824 42.9585 226.53 43.356 226.24 43.7498 225.866 44.0578 225.408 44.2798 224.953 44.4982 224.444 44.6074 223.882 44.6074 223.206 44.6074 222.602 44.4463 222.072 44.124 221.542 43.8018 221.127 43.3398 220.826 42.7383 220.529 42.1331 220.38 41.4242 220.38 40.6113 220.38 39.7985 220.531 39.0913 220.832 38.4897 221.132 37.8846 221.548 37.4209 222.078 37.0986 222.608 36.7764 223.209 36.6152 223.882 36.6152 224.43 36.6152 224.931 36.7209 225.386 36.9321 225.841 37.1398 226.217 37.4424 226.514 37.8398 226.811 38.2373 227.005 38.71 227.094 39.2578L225.902 39.2578Z" fill="#FFFFFF"/></svg>